<svg xmlns="http://www.w3.org/2000/svg" viewBox="0 0 640 320"><rect width="640" height="320" fill="#302214"/><g font-family="Arial,sans-serif"><rect x="115" y="35" width="410" height="245" rx="14" fill="#241A11" stroke="#8B7355"/><path d="M142 97V62h38m280 0h38v35M142 218v35h38m280 0h38v-35" fill="none" stroke="#D7A64A" stroke-width="3"/><path d="M259 117c0-74 122-74 122 0v54c0 81-122 81-122 0z" fill="none" stroke="#8B7355" stroke-width="2"/><path d="M273 139q17-14 34 0-17 14-34 0zm60 0q17-14 34 0-17 14-34 0z" fill="none" stroke="#F7F3EA" stroke-width="2"/><g fill="#D7A64A"><circle cx="290" cy="139" r="4"/><circle cx="350" cy="139" r="4"/><circle cx="320" cy="174" r="3"/><circle cx="297" cy="201" r="3"/><circle cx="343" cy="201" r="3"/></g><path d="M142 169h356" stroke="#D7A64A" opacity=".3"/><text x="143" y="83" fill="#D7A64A" font-size="10" letter-spacing="2">VISION STUDY</text><text x="165" y="303" fill="#C8BBA9" font-size="11" letter-spacing="3">DETECT · UNDERSTAND · RESPOND</text></g></svg>